<svg version="1.1" xmlns="http://www.w3.org/2000/svg" viewBox="0 0 1348.1945190429688 1007.3749847412109" width="1348.1945190429688" height="1007.3749847412109" filter="invert(93%) hue-rotate(180deg)">
  <!-- svg-source:excalidraw -->
  
  <defs>
    <style class="style-fonts">
      @font-face {
        font-family: "Virgil";
        src: url("https://excalidraw.com/Virgil.woff2");
      }
      @font-face {
        font-family: "Cascadia";
        src: url("https://excalidraw.com/Cascadia.woff2");
      }
    </style>
  </defs>
  <rect x="0" y="0" width="1348.1945190429688" height="1007.3749847412109" fill="#ffffff"/><g stroke-linecap="round" transform="translate(130.611083984375 10) rotate(0 49 20.5)"><path d="M10.25 0 M10.25 0 C28.3 -2.22, 41.02 -1.56, 87.75 0 M10.25 0 C41.81 0.02, 72.45 -1.44, 87.75 0 M87.75 0 C93.66 -1.68, 97.97 4.19, 98 10.25 M87.75 0 C93.97 -1.69, 96.77 2.23, 98 10.25 M98 10.25 C98.22 18.12, 98.06 26.67, 98 30.75 M98 10.25 C97.81 17.25, 97.4 25.59, 98 30.75 M98 30.75 C98.76 36.53, 96.26 41.35, 87.75 41 M98 30.75 C95.89 39.86, 93.88 38.92, 87.75 41 M87.75 41 C72.63 39.3, 55.58 41.37, 10.25 41 M87.75 41 C69.77 41.35, 53.94 41.69, 10.25 41 M10.25 41 C3.16 42.81, 0.73 35.99, 0 30.75 M10.25 41 C5.18 40.02, -1.6 39.7, 0 30.75 M0 30.75 C-1.8 26.73, -1.46 20.84, 0 10.25 M0 30.75 C-0.64 25.32, 0.15 20.57, 0 10.25 M0 10.25 C1.75 3.72, 2.7 0.66, 10.25 0 M0 10.25 C-1.57 5.24, 2.35 0.94, 10.25 0" stroke="#000000" stroke-width="1" fill="none"/></g><g transform="translate(158.611083984375 19) rotate(0 21 11.5)"><text x="21" y="18" font-family="Helvetica, Segoe UI Emoji" font-size="20px" fill="#000000" text-anchor="middle" style="white-space: pre;" direction="ltr">开始</text></g><g stroke-linecap="round" transform="translate(10.52783203125 272.54173278808594) rotate(0 167.5 51)"><path d="M25.5 0 M25.5 0 C102.23 1.4, 175.02 2.64, 309.5 0 M25.5 0 C101.89 1.59, 179.27 1.13, 309.5 0 M309.5 0 C328.43 0.51, 333.43 9.99, 335 25.5 M309.5 0 C327.13 -1.89, 335.31 9.67, 335 25.5 M335 25.5 C335.67 41.65, 336.47 60.15, 335 76.5 M335 25.5 C334.53 36.69, 334.47 49.47, 335 76.5 M335 76.5 C333.35 93.45, 325.87 101.41, 309.5 102 M335 76.5 C336.32 91.88, 326.66 102.2, 309.5 102 M309.5 102 C200.46 102.84, 91.48 103.54, 25.5 102 M309.5 102 C237.27 102.83, 164.87 103.44, 25.5 102 M25.5 102 C7.62 103.31, -0.35 95.1, 0 76.5 M25.5 102 C8.01 101.64, 0.32 91.85, 0 76.5 M0 76.5 C1.44 56.76, 0.02 38.05, 0 25.5 M0 76.5 C-0.69 61.46, 0.54 47.4, 0 25.5 M0 25.5 C-0.76 8.89, 8.59 1.26, 25.5 0 M0 25.5 C-0.06 7.1, 10.4 -0.3, 25.5 0" stroke="#000000" stroke-width="1" fill="none"/></g><g transform="translate(70.02783203125 300.54173278808594) rotate(0 108 23)"><text x="108" y="18" font-family="Helvetica, Segoe UI Emoji" font-size="20px" fill="#000000" text-anchor="middle" style="white-space: pre;" direction="ltr">遍历在线Pod列表</text><text x="108" y="41" font-family="Helvetica, Segoe UI Emoji" font-size="20px" fill="#000000" text-anchor="middle" style="white-space: pre;" direction="ltr">读取并解析Pod PSI指标</text></g><g stroke-linecap="round" transform="translate(10.5833740234375 112.263916015625) rotate(0 167 51)"><path d="M25.5 0 M25.5 0 C96.35 0.78, 167.13 1, 308.5 0 M25.5 0 C104.04 2.22, 181.65 0.88, 308.5 0 M308.5 0 C324.28 -1.89, 335.64 8.69, 334 25.5 M308.5 0 C327.29 -1.41, 336.11 8.11, 334 25.5 M334 25.5 C335.47 39.31, 332.59 50.78, 334 76.5 M334 25.5 C334.37 44.3, 333.82 62.76, 334 76.5 M334 76.5 C335.88 92.21, 327.02 100.05, 308.5 102 M334 76.5 C334.52 91.59, 324.31 103.95, 308.5 102 M308.5 102 C228.63 102.84, 148.86 101.45, 25.5 102 M308.5 102 C249.17 102.01, 189.79 101.17, 25.5 102 M25.5 102 C10.08 102.34, -1.32 92.32, 0 76.5 M25.5 102 C6.56 101.39, -2.07 93.74, 0 76.5 M0 76.5 C0.83 62.92, 1.7 46.63, 0 25.5 M0 76.5 C0.39 61.78, 0.97 46.06, 0 25.5 M0 25.5 C-1.92 7.82, 8.15 -0.27, 25.5 0 M0 25.5 C1.7 7.13, 7.63 2.03, 25.5 0" stroke="#000000" stroke-width="1" fill="none"/></g><g transform="translate(17.5833740234375 117.263916015625) rotate(0 160 46)"><text x="160" y="18" font-family="Helvetica, Segoe UI Emoji" font-size="20px" fill="#000000" text-anchor="middle" style="white-space: pre;" direction="ltr">是否支持cgroupV1 PSI接口？</text><text x="160" y="41" font-family="Helvetica, Segoe UI Emoji" font-size="20px" fill="#000000" text-anchor="middle" style="white-space: pre;" direction="ltr">/sys/fs/cgroup/cpuacct/cpu.pressure</text><text x="160" y="64" font-family="Helvetica, Segoe UI Emoji" font-size="20px" fill="#000000" text-anchor="middle" style="white-space: pre;" direction="ltr">...io.pressure  </text><text x="160" y="87" font-family="Helvetica, Segoe UI Emoji" font-size="20px" fill="#000000" text-anchor="middle" style="white-space: pre;" direction="ltr">...memory.pressure</text></g><g stroke-linecap="round" transform="translate(11.166748046875 434.31944274902344) rotate(0 174 51)"><path d="M25.5 0 M25.5 0 C141.86 -1.5, 256.46 -0.74, 322.5 0 M25.5 0 C104.69 -1.37, 184.43 -0.65, 322.5 0 M322.5 0 C340.91 -0.41, 347.09 8.82, 348 25.5 M322.5 0 C339.03 1.84, 346.93 9.12, 348 25.5 M348 25.5 C347.09 35.43, 346.67 46.86, 348 76.5 M348 25.5 C348.64 41.63, 347.7 58.14, 348 76.5 M348 76.5 C348.99 93.49, 340.63 103.04, 322.5 102 M348 76.5 C348.78 95.2, 340.13 102.44, 322.5 102 M322.5 102 C225.34 100.91, 127.9 101.61, 25.5 102 M322.5 102 C239.48 103.2, 156.32 104.19, 25.5 102 M25.5 102 C7.98 103.63, 0.68 94.71, 0 76.5 M25.5 102 C8.62 100.87, -1.15 94.15, 0 76.5 M0 76.5 C0.13 59.95, 1.01 46.12, 0 25.5 M0 76.5 C-0.17 59.14, -0.35 42.37, 0 25.5 M0 25.5 C-0.56 7.04, 10.2 -1.79, 25.5 0 M0 25.5 C2.05 8.98, 9.35 1.87, 25.5 0" stroke="#000000" stroke-width="1" fill="none"/></g><g transform="translate(18.166748046875 462.31944274902344) rotate(0 167 23)"><text x="167" y="18" font-family="Helvetica, Segoe UI Emoji" font-size="20px" fill="#000000" text-anchor="middle" style="white-space: pre;" direction="ltr">标记PSI指标最大值分别为cpu_max、</text><text x="167" y="41" font-family="Helvetica, Segoe UI Emoji" font-size="20px" fill="#000000" text-anchor="middle" style="white-space: pre;" direction="ltr">mem_max、io_max</text></g><g stroke-linecap="round" transform="translate(12.4166259765625 618.6249694824219) rotate(0 175 40)"><path d="M20 0 M20 0 C90.16 -1.94, 163.31 -0.31, 330 0 M20 0 C102.24 0.43, 185.71 0.72, 330 0 M330 0 C341.85 1.09, 351.39 5.65, 350 20 M330 0 C344.39 0.54, 349.56 7.76, 350 20 M350 20 C351.96 31.57, 351.2 41.11, 350 60 M350 20 C349.63 31.23, 349.46 44.1, 350 60 M350 60 C351.12 75.11, 342.86 81.39, 330 80 M350 60 C351.43 74.39, 344.74 80.64, 330 80 M330 80 C247.86 80.53, 166.17 79.88, 20 80 M330 80 C257.15 81.81, 184.63 80.94, 20 80 M20 80 C8.42 79.45, 1.19 73.96, 0 60 M20 80 C4.44 80.35, 0.31 72.15, 0 60 M0 60 C1.98 52.1, -0.04 45.16, 0 20 M0 60 C-0.21 49.7, 0.69 38.28, 0 20 M0 20 C-1.1 5.1, 5.34 -1.58, 20 0 M0 20 C-1.16 6.97, 8.06 0.29, 20 0" stroke="#000000" stroke-width="1" fill="none"/></g><g transform="translate(77.4166259765625 647.1249694824219) rotate(0 110 11.5)"><text x="110" y="18" font-family="Helvetica, Segoe UI Emoji" font-size="20px" fill="#000000" text-anchor="middle" style="white-space: pre;" direction="ltr">cpu_max &gt;= threshold？</text></g><g stroke-linecap="round" transform="translate(10.97222900390625 769.9583282470703) rotate(0 176.5 40)"><path d="M20 0 M20 0 C107.63 -1.04, 192.65 -1.27, 333 0 M20 0 C105 -1.27, 191.11 -2.51, 333 0 M333 0 C344.6 0.73, 353.98 8.64, 353 20 M333 0 C347.69 -1.49, 352.5 6.67, 353 20 M353 20 C354.3 30.7, 354.78 45.19, 353 60 M353 20 C353.95 32.75, 353.11 47.34, 353 60 M353 60 C354.75 74.55, 346.86 78.38, 333 80 M353 60 C353.24 73.95, 345.5 81.97, 333 80 M333 80 C270.06 77.4, 206.38 77.14, 20 80 M333 80 C269.07 81.29, 205.64 81.31, 20 80 M20 80 C5.81 79.69, -1.15 74.54, 0 60 M20 80 C6.83 77.94, -1.39 71.22, 0 60 M0 60 C0.55 49.52, -0.69 41.67, 0 20 M0 60 C0.32 50.7, 0.07 42.06, 0 20 M0 20 C-0.92 8.25, 5.67 -1.77, 20 0 M0 20 C1.11 5.89, 8.42 -1.95, 20 0" stroke="#000000" stroke-width="1" fill="none"/></g><g transform="translate(71.47222900390625 798.4583282470703) rotate(0 116 11.5)"><text x="116" y="18" font-family="Helvetica, Segoe UI Emoji" font-size="20px" fill="#000000" text-anchor="middle" style="white-space: pre;" direction="ltr">mem_max &gt;= threshold？</text></g><g stroke-linecap="round" transform="translate(10 916.6804962158203) rotate(0 175.5 40)"><path d="M20 0 M20 0 C136 -1.93, 252.41 -0.85, 331 0 M20 0 C114.86 0.97, 211.17 1.59, 331 0 M331 0 C344.97 -0.55, 350.39 8.2, 351 20 M331 0 C342.71 -0.37, 353.3 7.25, 351 20 M351 20 C350.08 33.08, 350.01 41.22, 351 60 M351 20 C350.02 34, 351.84 47.19, 351 60 M351 60 C349.89 74.14, 344.49 79.73, 331 80 M351 60 C350.53 74.99, 342.54 80.4, 331 80 M331 80 C209.13 79.25, 89.41 80.22, 20 80 M331 80 C209.82 82.07, 88.43 81.56, 20 80 M20 80 C5.63 80.75, 1.25 73.15, 0 60 M20 80 C8.89 79.61, 0.22 75.62, 0 60 M0 60 C0.59 46.44, 2.02 32.32, 0 20 M0 60 C-0.81 50.07, -1.11 37.86, 0 20 M0 20 C-0.32 7.39, 7 -0.34, 20 0 M0 20 C-0.48 5.66, 5.6 -0.43, 20 0" stroke="#000000" stroke-width="1" fill="none"/></g><g transform="translate(84 945.1804962158203) rotate(0 101.5 11.5)"><text x="101.5" y="18" font-family="Helvetica, Segoe UI Emoji" font-size="20px" fill="#000000" text-anchor="middle" style="white-space: pre;" direction="ltr">io_max &gt;= threshold？</text></g><g stroke-linecap="round" transform="translate(449.55560302734375 615.8472442626953) rotate(0 188.5 40)"><path d="M20 0 M20 0 C100.47 -0.06, 179.91 -1.45, 357 0 M20 0 C154.16 1.53, 288.97 1.86, 357 0 M357 0 C369.16 1.23, 375.45 5.17, 377 20 M357 0 C370.03 -2.3, 377.67 7.17, 377 20 M377 20 C379.03 32.08, 379.02 48.54, 377 60 M377 20 C377.31 35.48, 376.56 50.29, 377 60 M377 60 C378.66 74.52, 370.72 81.5, 357 80 M377 60 C375.34 75.01, 368.06 78.94, 357 80 M357 80 C256.23 82.01, 154.98 80.67, 20 80 M357 80 C226.93 77.54, 95.89 77.4, 20 80 M20 80 C6.57 80.07, -1.74 72.29, 0 60 M20 80 C6.47 78.48, -1.25 71.1, 0 60 M0 60 C1.23 50.97, -1.13 42.61, 0 20 M0 60 C-0.47 50.8, 0.44 40.42, 0 20 M0 20 C-0.95 8.06, 5.56 0.32, 20 0 M0 20 C1.38 6.13, 8.09 -2.11, 20 0" stroke="#000000" stroke-width="1" fill="none"/></g><g transform="translate(476.05560302734375 644.3472442626953) rotate(0 162 11.5)"><text x="162" y="18" font-family="Helvetica, Segoe UI Emoji" font-size="20px" fill="#000000" text-anchor="middle" style="white-space: pre;" direction="ltr">按照CPU利用率对离线业务进行排序</text></g><g stroke-linecap="round" transform="translate(448.5277099609375 768.5694427490234) rotate(0 188.5 40)"><path d="M20 0 M20 0 C123.13 -1.1, 226.29 -1.63, 357 0 M20 0 C141.25 1.98, 262.74 2.66, 357 0 M357 0 C368.86 1.31, 378.15 4.91, 377 20 M357 0 C368.16 0.55, 376.16 5.42, 377 20 M377 20 C375.54 32.16, 374.92 44.8, 377 60 M377 20 C376.17 28.55, 376.42 39.85, 377 60 M377 60 C376.1 74.79, 368.65 79.99, 357 80 M377 60 C375.1 72.51, 371.31 81.34, 357 80 M357 80 C265.43 78.11, 176.83 77.63, 20 80 M357 80 C285.45 78.97, 214.63 77.78, 20 80 M20 80 C8.5 78.72, -1.8 71.96, 0 60 M20 80 C7.96 81.95, -0.52 74.75, 0 60 M0 60 C0.56 44.64, -1.72 33.31, 0 20 M0 60 C-0.44 46.14, -0.65 30.54, 0 20 M0 20 C1.94 7.67, 7.1 -1.65, 20 0 M0 20 C1.14 8.7, 5.92 0.59, 20 0" stroke="#000000" stroke-width="1" fill="none"/></g><g transform="translate(476.0277099609375 797.0694427490234) rotate(0 161 11.5)"><text x="161" y="18" font-family="Helvetica, Segoe UI Emoji" font-size="20px" fill="#000000" text-anchor="middle" style="white-space: pre;" direction="ltr">按照内存占用量对离线业务进行排序</text></g><g stroke-linecap="round" transform="translate(446.1666259765625 917.3749847412109) rotate(0 188.5 40)"><path d="M20 0 M20 0 C93.39 0.44, 166.78 -1.42, 357 0 M20 0 C123.27 -2.54, 226.96 -1.37, 357 0 M357 0 C371.61 -0.57, 377.36 4.84, 377 20 M357 0 C371.78 1.75, 376.6 8.72, 377 20 M377 20 C378.69 29.36, 375.6 37.23, 377 60 M377 20 C378.05 33.07, 378.08 43.42, 377 60 M377 60 C375.63 73.91, 370.91 79.92, 357 80 M377 60 C378.62 73.86, 371.63 81.09, 357 80 M357 80 C236.93 79.1, 117.11 78.72, 20 80 M357 80 C255.39 79.11, 154.4 79.25, 20 80 M20 80 C7.72 80.03, -1.39 74.11, 0 60 M20 80 C7.72 80.9, -0.29 75.35, 0 60 M0 60 C-0.64 51.05, -0.44 42.6, 0 20 M0 60 C-0.23 46.86, -0.08 34.21, 0 20 M0 20 C0.49 5.37, 6 1.48, 20 0 M0 20 C0.05 7.32, 8.62 1.28, 20 0" stroke="#000000" stroke-width="1" fill="none"/></g><g transform="translate(506.1666259765625 945.8749847412109) rotate(0 128.5 11.5)"><text x="128.5" y="18" font-family="Helvetica, Segoe UI Emoji" font-size="20px" fill="#000000" text-anchor="middle" style="white-space: pre;" direction="ltr">按io带宽对离线业务进行排序</text></g><g stroke-linecap="round" transform="translate(931.3472290039062 746.0138397216797) rotate(0 87.5 64)"><path d="M32 0 M32 0 C63.04 -0.39, 98.53 -0.37, 143 0 M32 0 C64.28 0.47, 94.64 -0.82, 143 0 M143 0 C164.9 -1.15, 175.89 11.58, 175 32 M143 0 C165.94 1.66, 173.78 12.07, 175 32 M175 32 C175.9 44.69, 174.53 57.09, 175 96 M175 32 C173.76 44.94, 173.63 58.41, 175 96 M175 96 C174.01 116.74, 166.19 128.67, 143 128 M175 96 C176.13 117.93, 163.41 126.87, 143 128 M143 128 C105.82 127.42, 69.22 128.68, 32 128 M143 128 C118.56 129.26, 93.62 129.87, 32 128 M32 128 C10.42 126.51, 1.1 115.42, 0 96 M32 128 C9.29 125.83, -2.15 119.03, 0 96 M0 96 C1.71 79.66, -1.24 62.11, 0 32 M0 96 C1.09 80.49, -0.43 67.46, 0 32 M0 32 C0.1 11.57, 9.91 1.79, 32 0 M0 32 C0.35 12.15, 10.09 0.66, 32 0" stroke="#000000" stroke-width="1" fill="none"/></g><g transform="translate(957.8472290039062 798.5138397216797) rotate(0 61 11.5)"><text x="61" y="18" font-family="Helvetica, Segoe UI Emoji" font-size="20px" fill="#000000" text-anchor="middle" style="white-space: pre;" direction="ltr">处理可疑对象</text></g><g stroke-linecap="round" transform="translate(1194.5278015136719 687.5276794433594) rotate(0 70.5 39.5)"><path d="M19.75 0 M19.75 0 C58.05 -0.8, 96.89 0.1, 121.25 0 M19.75 0 C58.91 0.79, 97.19 0.36, 121.25 0 M121.25 0 C136.21 0.3, 142.29 6.09, 141 19.75 M121.25 0 C135.08 1.61, 141.23 5.93, 141 19.75 M141 19.75 C141.96 30.08, 141.02 42.21, 141 59.25 M141 19.75 C140.44 30.74, 141.3 41.52, 141 59.25 M141 59.25 C141.58 71.47, 135.18 78.72, 121.25 79 M141 59.25 C140.36 72.47, 136.1 78.9, 121.25 79 M121.25 79 C85.77 77.92, 50.57 78.3, 19.75 79 M121.25 79 C96.75 80.04, 71.68 78.25, 19.75 79 M19.75 79 C8.47 77.24, 1.38 73.71, 0 59.25 M19.75 79 C5.25 77.22, -1.23 73.04, 0 59.25 M0 59.25 C1.37 51.87, 1.33 43.09, 0 19.75 M0 59.25 C-0.26 43.39, 0.12 28.35, 0 19.75 M0 19.75 C-1.75 6.72, 7.2 -1.66, 19.75 0 M0 19.75 C-0.36 6.65, 5.92 -0.48, 19.75 0" stroke="#000000" stroke-width="1" fill="none"/></g><g transform="translate(1224.0278015136719 715.5276794433594) rotate(0 41 11.5)"><text x="41" y="18" font-family="Helvetica, Segoe UI Emoji" font-size="20px" fill="#000000" text-anchor="middle" style="white-space: pre;" direction="ltr">日志告警</text></g><g stroke-linecap="round" transform="translate(1197.1945190429688 834.458251953125) rotate(0 70.5 39.5)"><path d="M19.75 0 M19.75 0 C54.14 1.75, 88.34 1.39, 121.25 0 M19.75 0 C39.37 0.42, 60.11 -0.84, 121.25 0 M121.25 0 C135.88 0.2, 141.61 8.46, 141 19.75 M121.25 0 C134.52 -1.95, 143.17 4.56, 141 19.75 M141 19.75 C139.71 33.26, 141.79 47.1, 141 59.25 M141 19.75 C141.57 29.66, 141.32 39.43, 141 59.25 M141 59.25 C139.2 73.6, 133.19 78.45, 121.25 79 M141 59.25 C140.46 73.02, 132.41 79.16, 121.25 79 M121.25 79 C87.72 78.27, 53.65 77.02, 19.75 79 M121.25 79 C84.94 77.86, 50.23 79, 19.75 79 M19.75 79 C8.47 77.44, -0.43 72.34, 0 59.25 M19.75 79 C7.21 78.16, 2.19 72.01, 0 59.25 M0 59.25 C2.3 49.08, 1.81 40.98, 0 19.75 M0 59.25 C0.48 51.81, 0.53 43.11, 0 19.75 M0 19.75 C-1.91 6.09, 7.56 -0.84, 19.75 0 M0 19.75 C0.06 6.82, 5.63 2.04, 19.75 0" stroke="#000000" stroke-width="1" fill="none"/></g><g transform="translate(1226.6945190429688 862.458251953125) rotate(0 41 11.5)"><text x="41" y="18" font-family="Helvetica, Segoe UI Emoji" font-size="20px" fill="#000000" text-anchor="middle" style="white-space: pre;" direction="ltr">应用驱逐</text></g><g stroke-linecap="round"><g transform="translate(175.16510727826292 52.87619674152461) rotate(0 0.3472290039062358 27.43054962158203)"><path d="M-0.56 0.63 C-0.69 9.82, -0.2 45.75, -0.14 54.65 M1.35 -0.09 C1.54 9.34, 1.98 46.91, 2.13 56.08" stroke="#000000" stroke-width="1" fill="none"/></g><g transform="translate(175.16510727826292 52.87619674152461) rotate(0 0.3472290039062358 27.43054962158203)"><path d="M-6.56 29.04 C-4.63 38.04, -2.25 48.1, 2.02 55.86 M-8.37 30.32 C-4.91 38.21, -1.4 46.74, 1.35 56.29" stroke="#000000" stroke-width="1" fill="none"/></g><g transform="translate(175.16510727826292 52.87619674152461) rotate(0 0.3472290039062358 27.43054962158203)"><path d="M12.2 28.78 C7.51 37.78, 3.28 47.94, 2.02 55.86 M10.39 30.06 C7.85 38.06, 5.36 46.68, 1.35 56.29" stroke="#000000" stroke-width="1" fill="none"/></g></g><mask/><g stroke-linecap="round"><g transform="translate(175.8595652860754 218.15398299640742) rotate(0 1.04168701171875 26.04167175292968)"><path d="M0.48 0.63 C0.95 9.17, 2.04 42.9, 2.13 51.61 M-0.73 -0.08 C-0.35 8.59, 0.53 44.4, 1.21 52.89" stroke="#000000" stroke-width="1" fill="none"/></g><g transform="translate(175.8595652860754 218.15398299640742) rotate(0 1.04168701171875 26.04167175292968)"><path d="M-7.82 28.94 C-7.14 32.92, -2.64 40.78, -0.52 54.86 M-9.31 29.31 C-6.24 33.87, -4.41 40.75, 0.64 52.63" stroke="#000000" stroke-width="1" fill="none"/></g><g transform="translate(175.8595652860754 218.15398299640742) rotate(0 1.04168701171875 26.04167175292968)"><path d="M9.99 28.09 C6.34 32.34, 6.52 40.41, -0.52 54.86 M8.5 28.46 C7.44 33.27, 5.14 40.35, 0.64 52.63" stroke="#000000" stroke-width="1" fill="none"/></g></g><mask/><g stroke-linecap="round"><g transform="translate(174.47071030560664 378.57067000812617) rotate(0 0 25.694442749023438)"><path d="M0.28 0.02 C0.26 8.6, -1.05 43.07, -1.02 51.47 M-1.03 -1.02 C-0.6 7.78, 0.99 44.35, 1.16 53.05" stroke="#000000" stroke-width="1" fill="none"/></g><g transform="translate(174.47071030560664 378.57067000812617) rotate(0 0 25.694442749023438)"><path d="M-8.41 27.52 C-6.15 35.32, -5.79 37.96, 0.29 51.24 M-8.79 28.7 C-6.16 37.93, -1.72 44.78, 0.69 52.77" stroke="#000000" stroke-width="1" fill="none"/></g><g transform="translate(174.47071030560664 378.57067000812617) rotate(0 0 25.694442749023438)"><path d="M9.16 26.93 C7.47 34.91, 3.89 37.67, 0.29 51.24 M8.77 28.11 C5.39 37.48, 3.83 44.52, 0.69 52.77" stroke="#000000" stroke-width="1" fill="none"/></g></g><mask/><g stroke-linecap="round"><g transform="translate(175.8595652860754 543.1539829964074) rotate(0 0.34722900390625 34.72222900390625)"><path d="M0.18 0.9 C0.48 12.48, 0.83 57.52, 0.75 68.93 M-1.19 0.32 C-0.94 12.11, -0.72 58.47, -0.17 70.19" stroke="#000000" stroke-width="1" fill="none"/></g><g transform="translate(175.8595652860754 543.1539829964074) rotate(0 0.34722900390625 34.72222900390625)"><path d="M-9.58 42.33 C-9.78 46.45, -6.76 55.71, 1.25 69.47 M-11.32 41.39 C-8.29 49.53, -5.23 55.89, -1.13 71.02" stroke="#000000" stroke-width="1" fill="none"/></g><g transform="translate(175.8595652860754 543.1539829964074) rotate(0 0.34722900390625 34.72222900390625)"><path d="M10.94 41.86 C6.43 46.11, 5.15 55.46, 1.25 69.47 M9.19 40.92 C7.16 49.22, 5.17 55.69, -1.13 71.02" stroke="#000000" stroke-width="1" fill="none"/></g></g><mask/><g stroke-linecap="round"><g transform="translate(175.8595652860754 702.8761814827355) rotate(0 -0.694427490234375 31.59722900390625)"><path d="M0.05 0.71 C-0.28 11.13, -1.03 53.12, -1.47 63.43 M-1.38 0.04 C-1.92 9.99, -2.64 50.84, -2.46 61.44" stroke="#000000" stroke-width="1" fill="none"/></g><g transform="translate(175.8595652860754 702.8761814827355) rotate(0 -0.694427490234375 31.59722900390625)"><path d="M-11.44 33.07 C-8.53 40.88, -6.44 52.78, -1.76 62.11 M-12.13 33.65 C-9.88 42.4, -5.36 52.34, -2.71 62.22" stroke="#000000" stroke-width="1" fill="none"/></g><g transform="translate(175.8595652860754 702.8761814827355) rotate(0 -0.694427490234375 31.59722900390625)"><path d="M9.08 33.14 C4.97 40.93, 0.05 52.81, -1.76 62.11 M8.39 33.72 C3.93 42.5, 1.73 52.41, -2.71 62.22" stroke="#000000" stroke-width="1" fill="none"/></g></g><mask/><g stroke-linecap="round"><g transform="translate(177.2484813017004 853.5706700081262) rotate(0 -1.388885498046875 29.166656494140625)"><path d="M-1.1 -0.96 C-1.84 8.87, -3.53 48.49, -3.68 58.57 M0.52 1.14 C0.09 10.63, -0.97 47.13, -1.44 56.58" stroke="#000000" stroke-width="1" fill="none"/></g><g transform="translate(177.2484813017004 853.5706700081262) rotate(0 -1.388885498046875 29.166656494140625)"><path d="M-11.97 27.27 C-6.83 40.24, -2.01 50.05, -0.76 55.55 M-11.15 28 C-7.84 36.3, -5.13 44.18, -1.23 57.43" stroke="#000000" stroke-width="1" fill="none"/></g><g transform="translate(177.2484813017004 853.5706700081262) rotate(0 -1.388885498046875 29.166656494140625)"><path d="M7.99 28.04 C5.89 40.55, 3.46 50.07, -0.76 55.55 M8.8 28.77 C6.71 36.76, 4 44.43, -1.23 57.43" stroke="#000000" stroke-width="1" fill="none"/></g></g><mask/><g stroke-linecap="round"><g transform="translate(368.22071030560664 661.209555506173) rotate(0 39.236083984374986 -0.34722137451169033)"><path d="M1.04 -0.93 C14.25 -0.84, 65.6 -0.41, 78.56 -0.2 M0.13 1.19 C13.26 0.99, 64.64 -1.61, 77.66 -2.06" stroke="#000000" stroke-width="1" fill="none"/></g><g transform="translate(368.22071030560664 661.209555506173) rotate(0 39.236083984374986 -0.34722137451169033)"><path d="M48.38 9.55 C57.51 6.96, 65.08 3.49, 76.05 -0.31 M50.77 10.33 C60.48 5.63, 68.36 1.62, 77.95 -1.65" stroke="#000000" stroke-width="1" fill="none"/></g><g transform="translate(368.22071030560664 661.209555506173) rotate(0 39.236083984374986 -0.34722137451169033)"><path d="M47.5 -10.95 C56.71 -8.62, 64.49 -7.15, 76.05 -0.31 M49.89 -10.17 C60.05 -7.74, 68.24 -4.61, 77.95 -1.65" stroke="#000000" stroke-width="1" fill="none"/></g></g><mask/><g stroke-linecap="round"><g transform="translate(370.3040232938879 811.9039829964074) rotate(0 37.15277099609374 -1.041656494140625)"><path d="M-0.1 0.04 C12.27 -0.37, 62.06 -1.99, 74.33 -2.26 M-1.61 -0.99 C10.6 -1.22, 60.46 -0.36, 73.39 -0.81" stroke="#000000" stroke-width="1" fill="none"/></g><g transform="translate(370.3040232938879 811.9039829964074) rotate(0 37.15277099609374 -1.041656494140625)"><path d="M45.32 9.65 C53.67 5.12, 63.49 4.82, 74.76 -2.8 M46.19 8.98 C53.93 6.76, 62.73 2.72, 74.26 -0.72" stroke="#000000" stroke-width="1" fill="none"/></g><g transform="translate(370.3040232938879 811.9039829964074) rotate(0 37.15277099609374 -1.041656494140625)"><path d="M45.2 -10.87 C53.61 -9.05, 63.48 -3, 74.76 -2.8 M46.07 -11.54 C53.84 -7.49, 62.68 -5.26, 74.26 -0.72" stroke="#000000" stroke-width="1" fill="none"/></g></g><mask/><g stroke-linecap="round"><g transform="translate(365.44287827435664 959.1261814827358) rotate(0 37.847229003906236 -0.347198486328125)"><path d="M0.95 0.33 C13.82 0.54, 63.72 0.28, 76.09 0.07 M-0.01 -0.54 C12.83 -0.57, 63 -1.79, 75.35 -1.65" stroke="#000000" stroke-width="1" fill="none"/></g><g transform="translate(365.44287827435664 959.1261814827358) rotate(0 37.847229003906236 -0.347198486328125)"><path d="M47.81 9.52 C54.49 5.54, 58.69 5.68, 77.29 -0.07 M47.65 9.29 C56.51 4.64, 65.87 2.64, 74.67 -1.72" stroke="#000000" stroke-width="1" fill="none"/></g><g transform="translate(365.44287827435664 959.1261814827358) rotate(0 37.847229003906236 -0.347198486328125)"><path d="M47.62 -11 C54.14 -10.7, 58.38 -6.28, 77.29 -0.07 M47.46 -11.23 C56.32 -8.75, 65.74 -3.64, 74.67 -1.72" stroke="#000000" stroke-width="1" fill="none"/></g></g><mask/><g stroke-linecap="round"><g transform="translate(832.8040232938879 657.0428990120324) rotate(0 43.749969482421875 74.65277099609375)"><path d="M-0.98 1.18 C13.55 26.07, 72.22 125.67, 87.15 150.42 M0.71 0.76 C15.06 25.85, 71.39 124.41, 86.02 148.89" stroke="#000000" stroke-width="1" fill="none"/></g><g transform="translate(832.8040232938879 657.0428990120324) rotate(0 43.749969482421875 74.65277099609375)"><path d="M64.93 129.11 C71.81 137.41, 77.47 140.64, 85.04 149.07 M63.3 129.27 C68.84 135.67, 75.31 139.88, 85.94 149.61" stroke="#000000" stroke-width="1" fill="none"/></g><g transform="translate(832.8040232938879 657.0428990120324) rotate(0 43.749969482421875 74.65277099609375)"><path d="M82.66 118.78 C84.4 129.99, 84.82 136.27, 85.04 149.07 M81.03 118.94 C81.83 127.88, 83.66 134.78, 85.94 149.61" stroke="#000000" stroke-width="1" fill="none"/></g></g><mask/><g stroke-linecap="round"><g transform="translate(830.7206492704505 811.9040135139855) rotate(0 43.05557250976557 0.6944427490234375)"><path d="M-0.29 0.76 C13.68 1, 70.62 0.1, 84.93 0.28 M1.76 0.11 C15.98 0.56, 73.23 1.29, 87.01 1.23" stroke="#000000" stroke-width="1" fill="none"/></g><g transform="translate(830.7206492704505 811.9040135139855) rotate(0 43.05557250976557 0.6944427490234375)"><path d="M60.02 9.35 C68.1 6.48, 81.79 3.12, 89.01 1.03 M59.76 10.46 C68.35 7.31, 76.16 4.91, 86.73 0.82" stroke="#000000" stroke-width="1" fill="none"/></g><g transform="translate(830.7206492704505 811.9040135139855) rotate(0 43.05557250976557 0.6944427490234375)"><path d="M60.15 -11.17 C67.97 -5.99, 81.61 -1.29, 89.01 1.03 M59.88 -10.06 C68.62 -6.88, 76.4 -2.93, 86.73 0.82" stroke="#000000" stroke-width="1" fill="none"/></g></g><mask/><g stroke-linecap="round"><g transform="translate(830.7206492704504 957.0428684944543) rotate(0 45.138885498046875 -69.09721374511719)"><path d="M0.02 -0.28 C15.04 -23.45, 75.41 -115.72, 90.4 -138.81 M-1.43 -1.47 C13.42 -24.51, 74.44 -114.87, 89.52 -137.6" stroke="#000000" stroke-width="1" fill="none"/></g><g transform="translate(830.7206492704504 957.0428684944543) rotate(0 45.138885498046875 -69.09721374511719)"><path d="M81.9 -108.26 C83.57 -118.39, 85.82 -125.58, 88.03 -138.15 M81.76 -108.65 C85.74 -117.65, 86.3 -126.92, 88.78 -137.04" stroke="#000000" stroke-width="1" fill="none"/></g><g transform="translate(830.7206492704504 957.0428684944543) rotate(0 45.138885498046875 -69.09721374511719)"><path d="M64.85 -119.68 C72.01 -126.14, 79.73 -129.67, 88.03 -138.15 M64.71 -120.06 C73.88 -125.38, 79.74 -131.1, 88.78 -137.04" stroke="#000000" stroke-width="1" fill="none"/></g></g><mask/><g stroke-linecap="round"><g transform="translate(1113.3595652860754 802.8762120003137) rotate(0 37.5 -37.5)"><path d="M0.55 -0.53 C13.01 -13.12, 62.47 -63.16, 75.04 -75.53 M-0.62 1.8 C11.66 -10.63, 61.38 -61.76, 74.11 -74.28" stroke="#000000" stroke-width="1" fill="none"/></g><g transform="translate(1113.3595652860754 802.8762120003137) rotate(0 37.5 -37.5)"><path d="M60.66 -46.97 C64.69 -54.21, 70.01 -64.37, 74.36 -72.46 M62.4 -47.67 C66.11 -54.62, 69.09 -63.3, 73.13 -75.07" stroke="#000000" stroke-width="1" fill="none"/></g><g transform="translate(1113.3595652860754 802.8762120003137) rotate(0 37.5 -37.5)"><path d="M46.09 -61.42 C54.8 -64.09, 64.8 -69.6, 74.36 -72.46 M47.83 -62.12 C56.15 -64.37, 63.74 -68.48, 73.13 -75.07" stroke="#000000" stroke-width="1" fill="none"/></g></g><mask/><g stroke-linecap="round"><g transform="translate(1115.4428782743566 813.2928990120324) rotate(0 36.8055419921875 29.861099243164062)"><path d="M-0.15 -1.12 C12.19 8.81, 60.44 50.17, 72.9 60.34 M-1.69 0.9 C11.14 10.43, 62.56 48.47, 75.24 58.54" stroke="#000000" stroke-width="1" fill="none"/></g><g transform="translate(1115.4428782743566 813.2928990120324) rotate(0 36.8055419921875 29.861099243164062)"><path d="M44.73 48.42 C53.6 53.17, 58.74 53.45, 76.29 57.3 M46.94 48.93 C55.77 52.47, 63.49 54.32, 75.7 57.79" stroke="#000000" stroke-width="1" fill="none"/></g><g transform="translate(1115.4428782743566 813.2928990120324) rotate(0 36.8055419921875 29.861099243164062)"><path d="M57.18 32.1 C63.57 40.21, 66.14 43.86, 76.29 57.3 M59.39 32.61 C64.35 41.16, 68.33 47.92, 75.7 57.79" stroke="#000000" stroke-width="1" fill="none"/></g></g><mask/></svg>